<svg xmlns="http://www.w3.org/2000/svg" version="1.1" xmlns:xlink="http://www.w3.org/1999/xlink" xmlns:svgjs="http://svgjs.com/svgjs" width="2000" height="1000" preserveAspectRatio="none" viewBox="0 0 2000 1000"><g mask="url(&quot;#SvgjsMask1324&quot;)" fill="none"><g mask="url(&quot;#SvgjsMask1325&quot;)"><path d="M2025 525L1975 475M2075 525L2025 525L1975 525L1925 525" stroke="rgba(74, 149, 249, 1)" stroke-width="8.33"></path><path d="M1912.5 525 a12.5 12.5 0 1 0 25 0 a12.5 12.5 0 1 0 -25 0zM1962.5 475 a12.5 12.5 0 1 0 25 0 a12.5 12.5 0 1 0 -25 0z" fill="rgba(74, 149, 249, 1)"></path><path d="M2075 575L2025 575L1975 575L1925 575L1875 575" stroke="rgba(74, 149, 249, 1)" stroke-width="8.33"></path><path d="M1862.5 575 a12.5 12.5 0 1 0 25 0 a12.5 12.5 0 1 0 -25 0z" fill="rgba(74, 149, 249, 1)"></path><path d="M1925 425L1875 475L1825 475L1775 475M1875 425L1825 425M2075 425L2025 425L1975 425L1925 425L1875 425L1825 375" stroke="rgba(74, 149, 249, 1)" stroke-width="8.33"></path><path d="M1812.5 375 a12.5 12.5 0 1 0 25 0 a12.5 12.5 0 1 0 -25 0zM1762.5 475 a12.5 12.5 0 1 0 25 0 a12.5 12.5 0 1 0 -25 0zM1812.5 425 a12.5 12.5 0 1 0 25 0 a12.5 12.5 0 1 0 -25 0z" fill="rgba(74, 149, 249, 1)"></path><path d="M1775 625L1725 675L1675 675M1825 625L1775 575L1725 575L1675 575L1625 575M1975 625L1925 675L1875 675M2075 625L2025 625L1975 625L1925 625L1875 625L1825 625L1775 625L1725 625L1675 625L1625 675L1575 675L1525 675L1475 725L1425 725L1375 725" stroke="#3a7cc3" stroke-width="8.33"></path><path d="M1362.5 725 a12.5 12.5 0 1 0 25 0 a12.5 12.5 0 1 0 -25 0zM1662.5 675 a12.5 12.5 0 1 0 25 0 a12.5 12.5 0 1 0 -25 0zM1612.5 575 a12.5 12.5 0 1 0 25 0 a12.5 12.5 0 1 0 -25 0zM1862.5 675 a12.5 12.5 0 1 0 25 0 a12.5 12.5 0 1 0 -25 0z" fill="#3a7cc3"></path><path d="M2075 375L2025 375" stroke="#3a7cc3" stroke-width="8.33"></path><path d="M2012.5 375 a12.5 12.5 0 1 0 25 0 a12.5 12.5 0 1 0 -25 0z" fill="#3a7cc3"></path><path d="M1875 725L1825 775L1775 775L1725 775M2025 675L1975 675M1925 725L1875 775M2075 675L2025 675L1975 725L1925 725L1875 725L1825 725" stroke="rgba(74, 149, 249, 1)" stroke-width="8.33"></path><path d="M1812.5 725 a12.5 12.5 0 1 0 25 0 a12.5 12.5 0 1 0 -25 0zM1712.5 775 a12.5 12.5 0 1 0 25 0 a12.5 12.5 0 1 0 -25 0zM1962.5 675 a12.5 12.5 0 1 0 25 0 a12.5 12.5 0 1 0 -25 0zM1862.5 775 a12.5 12.5 0 1 0 25 0 a12.5 12.5 0 1 0 -25 0z" fill="rgba(74, 149, 249, 1)"></path><path d="M1925 825L1875 875M1975 775L1925 775M1875 825L1825 825M2075 725L2025 725L1975 775L1925 825L1875 825L1825 875" stroke="rgba(74, 149, 249, 1)" stroke-width="8.33"></path><path d="M1812.5 875 a12.5 12.5 0 1 0 25 0 a12.5 12.5 0 1 0 -25 0zM1862.5 875 a12.5 12.5 0 1 0 25 0 a12.5 12.5 0 1 0 -25 0zM1912.5 775 a12.5 12.5 0 1 0 25 0 a12.5 12.5 0 1 0 -25 0zM1812.5 825 a12.5 12.5 0 1 0 25 0 a12.5 12.5 0 1 0 -25 0z" fill="rgba(74, 149, 249, 1)"></path><path d="M1625 325L1575 375L1525 375L1475 425L1425 425M1575 325L1525 275L1475 275L1425 275L1375 275M1925 275L1875 325M2075 275L2025 275L1975 275L1925 275L1875 275L1825 325L1775 325L1725 325L1675 325L1625 325L1575 325L1525 325L1475 325L1425 325L1375 325" stroke="rgba(74, 149, 249, 1)" stroke-width="8.33"></path><path d="M1362.5 325 a12.5 12.5 0 1 0 25 0 a12.5 12.5 0 1 0 -25 0zM1412.5 425 a12.5 12.5 0 1 0 25 0 a12.5 12.5 0 1 0 -25 0zM1362.5 275 a12.5 12.5 0 1 0 25 0 a12.5 12.5 0 1 0 -25 0zM1862.5 325 a12.5 12.5 0 1 0 25 0 a12.5 12.5 0 1 0 -25 0z" fill="rgba(74, 149, 249, 1)"></path></g></g><defs><mask id="SvgjsMask1324"><rect width="2000" height="1000" fill="#ffffff"></rect></mask><mask id="SvgjsMask1325"><rect width="2000" height="1000" fill="white"></rect><path d="M1918.75 525 a6.25 6.25 0 1 0 12.5 0 a6.25 6.25 0 1 0 -12.5 0zM1968.75 475 a6.25 6.25 0 1 0 12.5 0 a6.25 6.25 0 1 0 -12.5 0z" fill="black"></path><path d="M1868.75 575 a6.25 6.25 0 1 0 12.5 0 a6.25 6.25 0 1 0 -12.5 0z" fill="black"></path><path d="M1818.75 375 a6.25 6.25 0 1 0 12.5 0 a6.25 6.25 0 1 0 -12.5 0zM1768.75 475 a6.25 6.25 0 1 0 12.5 0 a6.25 6.25 0 1 0 -12.5 0zM1818.75 425 a6.25 6.25 0 1 0 12.5 0 a6.25 6.25 0 1 0 -12.5 0z" fill="black"></path><path d="M1368.75 725 a6.25 6.25 0 1 0 12.5 0 a6.25 6.25 0 1 0 -12.5 0zM1668.75 675 a6.25 6.25 0 1 0 12.5 0 a6.25 6.25 0 1 0 -12.5 0zM1618.75 575 a6.25 6.25 0 1 0 12.5 0 a6.25 6.25 0 1 0 -12.5 0zM1868.75 675 a6.25 6.25 0 1 0 12.5 0 a6.25 6.25 0 1 0 -12.5 0z" fill="black"></path><path d="M2018.75 375 a6.25 6.25 0 1 0 12.5 0 a6.25 6.25 0 1 0 -12.5 0z" fill="black"></path><path d="M1818.75 725 a6.25 6.25 0 1 0 12.5 0 a6.25 6.25 0 1 0 -12.5 0zM1718.75 775 a6.25 6.25 0 1 0 12.5 0 a6.25 6.25 0 1 0 -12.5 0zM1968.75 675 a6.25 6.25 0 1 0 12.5 0 a6.25 6.25 0 1 0 -12.5 0zM1868.75 775 a6.25 6.25 0 1 0 12.5 0 a6.25 6.25 0 1 0 -12.5 0z" fill="black"></path><path d="M1818.75 875 a6.25 6.25 0 1 0 12.5 0 a6.25 6.25 0 1 0 -12.5 0zM1868.75 875 a6.25 6.25 0 1 0 12.5 0 a6.25 6.25 0 1 0 -12.5 0zM1918.75 775 a6.25 6.25 0 1 0 12.5 0 a6.25 6.25 0 1 0 -12.5 0zM1818.75 825 a6.25 6.25 0 1 0 12.5 0 a6.25 6.25 0 1 0 -12.5 0z" fill="black"></path><path d="M1368.75 325 a6.25 6.25 0 1 0 12.5 0 a6.25 6.25 0 1 0 -12.5 0zM1418.75 425 a6.25 6.25 0 1 0 12.5 0 a6.25 6.25 0 1 0 -12.5 0zM1368.75 275 a6.25 6.25 0 1 0 12.5 0 a6.25 6.25 0 1 0 -12.5 0zM1868.75 325 a6.25 6.25 0 1 0 12.5 0 a6.25 6.25 0 1 0 -12.5 0z" fill="black"></path></mask></defs></svg>